<?xml version="1.0" encoding="utf-8"?>
<!-- Generator: Adobe Illustrator 21.1.0, SVG Export Plug-In . SVG Version: 6.00 Build 0)  -->
<svg version="1.1" id="Layer_1" xmlns="http://www.w3.org/2000/svg" xmlns:xlink="http://www.w3.org/1999/xlink" x="0px" y="0px"
   viewBox="0 0 24 24" style="enable-background:new 0 0 24 24;" xml:space="preserve">
<path class="icon-fill" d="M16.4,24c-0.6,0-1-0.5-1-1v-4c0.1-0.8-0.2-1.5-0.7-2c-0.3-0.3-0.4-0.7-0.2-1.1c0.1-0.4,0.5-0.6,0.9-0.7
  c3-0.3,5.8-1.3,5.8-6.3c0-1.2-0.5-2.3-1.3-3.2c-0.3-0.3-0.4-0.7-0.2-1.1C19.9,3.8,20,3,19.8,2.1c-0.5,0.1-1.4,0.4-2.8,1.3
  c-0.3,0.2-0.6,0.2-0.9,0.1C13.9,3,11.6,3,9.4,3.6c-0.3,0.1-0.6,0-0.9-0.1C7.2,2.6,6.3,2.3,5.8,2.1C5.6,3,5.6,3.8,5.9,4.6
  C6.1,5,6,5.4,5.7,5.7c-0.8,0.9-1.3,2-1.3,3.2c0,4.9,2.8,5.9,5.8,6.3c0.4,0,0.7,0.3,0.9,0.7c0.1,0.4,0,0.8-0.2,1.1
  c-0.5,0.5-0.7,1.2-0.7,1.9l0,0.9c0,0,0,0.1,0,0.1l0,3.1c0,0.6-0.5,1-1,1c-0.6,0-1-0.5-1-1v-1.8c-3.1,0.5-4.5-1.2-5.4-2.4
  c-0.4-0.5-0.8-1-1.1-1C1,17.6,0.7,17,0.8,16.5c0.1-0.6,0.7-0.9,1.3-0.8c1,0.3,1.7,1.1,2.2,1.8c0.9,1.1,1.6,2,3.8,1.6v-0.1
  c0-0.6,0.1-1.3,0.3-1.9c-2.9-0.7-6-2.5-6-8.1c0-1.5,0.5-3,1.4-4.2C3.4,3.4,3.5,2,4.1,0.7c0.1-0.3,0.4-0.5,0.7-0.6
  C5.1,0,6.6-0.3,9.3,1.5C11.6,1,14,1,16.2,1.5C19-0.3,20.4,0,20.8,0.1c0.3,0.1,0.5,0.3,0.7,0.6C22,2,22.1,3.4,21.8,4.8
  c0.9,1.2,1.4,2.6,1.4,4.1c0,5.9-3.6,7.6-6,8.1c0.2,0.6,0.4,1.3,0.3,2l0,4C17.5,23.5,17,24,16.4,24z"/>
</svg>
