<svg xmlns="http://www.w3.org/2000/svg" width="24" height="24"><path class="icon-fill" d="M23.42 10.15l-.122-.513H12.132v4.726h6.672c-.693 3.29-3.907 5.02-6.533 5.02-1.91 0-3.924-.803-5.257-2.094a7.504 7.504 0 01-2.24-5.298c0-1.99.895-3.982 2.197-5.291 1.302-1.31 3.268-2.043 5.223-2.043 2.239 0 3.843 1.189 4.443 1.73l3.359-3.34C19.01 2.181 16.304 0 12.086 0 8.83 0 5.71 1.247 3.43 3.52 1.179 5.76.013 8.996.013 12c0 3.004 1.103 6.08 3.284 8.336C5.628 22.742 8.93 24 12.328 24c3.093 0 6.024-1.212 8.114-3.41 2.054-2.165 3.116-5.16 3.116-8.299 0-1.321-.133-2.106-.139-2.14z"/></svg>