<?xml version="1.0" encoding="utf-8"?>
<!-- Generator: Adobe Illustrator 21.1.0, SVG Export Plug-In . SVG Version: 6.00 Build 0)  -->
<svg version="1.1" id="Layer_1" xmlns="http://www.w3.org/2000/svg" xmlns:xlink="http://www.w3.org/1999/xlink" x="0px" y="0px"
   viewBox="0 0 24 24" style="enable-background:new 0 0 24 24;" xml:space="preserve">
<g class="icon-fill">
  <path d="M7.6,10.9v2.6H12c-0.2,1.1-1.3,3.3-4.3,3.3c-2.6,0-4.7-2.2-4.7-4.8S5,7.2,7.6,7.2c1.5,0,2.5,0.6,3,1.2l2.1-2
    c-1.3-1.2-3.1-2-5.1-2C3.4,4.4,0,7.8,0,12s3.4,7.6,7.6,7.6c4.4,0,7.3-3.1,7.3-7.5c0-0.5-0.1-0.9-0.1-1.3H7.6L7.6,10.9z"/>
  <path d="M24,10.9h-2.2V8.6h-2.2v2.2h-2.2v2.2h2.2v2.2h2.2v-2.2H24V10.9z"/>
</g>
</svg>
