<!-- @SOURCE https://ionicons.com -->
<svg xmlns="http://www.w3.org/2000/svg" viewBox="0 0 24 24">
  <g class="icon-stroke" fill="none" fill-rule="evenodd" stroke="#000000" stroke-width="2" stroke-linecap="round" stroke-linejoin="round" transform="translate(1 4)">
    <path d="M18.1781737,3.52783964 C18.0346102,5.52057906 16.5563474,7.05567929 14.9443207,7.05567929 C13.332294,7.05567929 11.8515813,5.52106904 11.7104677,3.52783964 C11.5634744,1.45474388 13.002539,0 14.9443207,0 C16.8861024,0 18.325167,1.49247216 18.1781737,3.52783964 Z"/>
    <path d="M14.9443207,10.1915367 C11.7511359,10.1915367 8.68044543,11.7775947 7.9111804,14.8664143 C7.80926503,15.2750557 8.06552339,15.6792873 8.4854343,15.6792873 L21.4036971,15.6792873 C21.823608,15.6792873 22.0783964,15.2750557 21.977951,14.8664143 C21.208686,11.7281069 18.1379955,10.1915367 14.9443207,10.1915367 Z"/>
    <path d="M8.28062361,4.40685969 C8.16596882,5.99830735 6.97140312,7.25167038 5.68374165,7.25167038 C4.39608018,7.25167038 3.19955457,5.99879733 3.08685969,4.40685969 C2.96975501,2.75122494 4.13247216,1.56792873 5.68374165,1.56792873 C7.23501114,1.56792873 8.39772829,2.78160356 8.28062361,4.40685969 Z"/>
    <path d="M8.57461024,10.2895323 C7.69020045,9.88432071 6.71612472,9.7285078 5.68374165,9.7285078 C3.13585746,9.7285078 0.681069042,10.9951002 0.0661469933,13.4621381 C-0.0146993318,13.7884633 0.190111359,14.1113586 0.525256125,14.1113586 L6.02672606,14.1113586"/>
  </g>
</svg>
