<!-- @SOURCE https://ionicons.com -->
<svg xmlns="http://www.w3.org/2000/svg" viewBox="0 0 24 24">
  <g class="icon-fill"><path d="M12,24 C5.38326923,24 0,18.6167308 0,12 C0,5.38326923 5.38326923,0 12,0 C18.6167308,0 24,5.38326923 24,12 C24,18.6167308 18.6167308,24 12,24 Z M12,1.84615385 C6.40384615,1.84615385 1.84615385,6.40384615 1.84615385,12 C1.84615385,17.5961538 6.40384615,22.1538462 12,22.1538462 C17.5961538,22.1538462 22.1538462,17.5990385 22.1538462,12 C22.1538462,6.40096154 17.5990385,1.84615385 12,1.84615385 Z"/>
  <path d="M15.9040385 14.0769231C14.9001923 14.0769231 13.9303846 13.6315385 13.1728846 12.8232692 12.4236228 12.0105629 11.9756405 10.9655424 11.9036538 9.8625 11.8188462 8.66826923 12.1851923 7.56923077 12.9351923 6.76903846 13.6851923 5.96884615 14.7334615 5.53846154 15.9040385 5.53846154 17.0659615 5.53846154 18.1176923 5.97807692 18.8653846 6.77653846 19.6130769 7.575 19.9886538 8.68038462 19.9038462 9.86365385L19.9038462 9.86365385C19.8305002 10.9660285 19.3826858 12.0102501 18.6346154 12.8232692 17.8765385 13.6315385 16.9073077 14.0769231 15.9040385 14.0769231zM6.68192308 14.2707692C4.965 14.2707692 3.45519231 12.6836538 3.31673077 10.7325 3.24576923 9.73326923 3.55615385 8.80961538 4.19192308 8.13173077 4.82769231 7.45384615 5.70461538 7.09326923 6.68134615 7.09326923 7.65807692 7.09326923 8.53442308 7.46480769 9.16615385 8.13980769 9.79788462 8.81480769 10.1180769 9.74480769 10.0459615 10.7359615 9.90519231 12.6842308 8.39596154 14.2707692 6.68192308 14.2707692zM21.4828846 17.7276923C21.3911538 17.4565385 21.1678846 17.1675 20.7201923 16.8934615 19.3667308 16.0667308 17.7017308 15.6294231 15.9040385 15.6294231 14.1403846 15.6294231 12.4292308 16.0851923 11.085 16.9130769 9.57057692 17.8459615 8.55288462 19.2063462 8.14269231 20.8465385 8.04576923 21.2325 7.90442308 21.9507692 8.05557692 22.3528846 13.0611627 24.2563893 18.7118973 22.3100116 21.4834615 17.7276923L21.4828846 17.7276923zM6.67096154 20.3867308C7.07884615 18.7592308 7.94711538 17.4023077 9.29423077 16.305 9.42393578 16.197994 9.4851833 16.0289159 9.45410141 15.8636659 9.42301952 15.6984158 9.304527 15.5631451 9.14480769 15.5105769 8.4525 15.2896154 7.66211538 15.1713462 6.68192308 15.1713462 5.30769231 15.1713462 3.84865385 15.5434615 2.75076923 16.2196154 2.43923077 16.4117308 2.13346154 16.4855769 1.89807692 16.5513462 2.84311811 18.64004 4.41034049 20.3857863 6.38538462 21.5498077L6.48865385 21.5417308C6.51123662 21.1516663 6.57230245 20.7647872 6.67096154 20.3867308L6.67096154 20.3867308z"/></g>
</svg>
