<svg xmlns="http://www.w3.org/2000/svg" viewBox="0 0 24 24"><g class="icon-stroke" stroke="#000000" fill="none" stroke-width="2" stroke-linecap="round" stroke-linejoin="round"><path d="M10.313 5.007c.33-1.21 1.174-2.714 3.3-2.714 0 0 5.867-1.87 5.867 4.107 0 5.023 1.137 5.573 2.347 6.783a20.753 20.753 0 01-4.694.55v.587c0 .587-.11 1.76 2.824 2.347C22.89 17.253 23 19.6 23 19.6h-7.7"/><path d="M14.237 19.307c-2.934-.404-2.934-1.467-2.934-2.054v-.33a5.353 5.353 0 001.54-2.566c.88 0 1.1-1.87 1.1-2.127 0-.257-.073-1.32-.476-1.43 1.466-5.133-2.934-7.333-6.747-4.693-1.613 0-2.127 2.346-1.54 4.693-.403 0-.477 1.1-.477 1.393 0 .294.22 2.127 1.1 2.127.294 1.063 1.1 1.943 1.797 2.567v.366c0 .587-.22 1.687-3.19 2.054C1.44 19.673 1 22.533 1 22.533h16.133s.037-2.823-2.896-3.226z"/></g></svg>
