<svg xmlns="http://www.w3.org/2000/svg" viewBox="0 0 24 24">
  <g class="icon-stroke" stroke="#000000" fill="none" stroke-width="2" stroke-linecap="round" stroke-linejoin="round" transform="translate(1 1)">
    <path d="M17.93,19.5433333 C17.4489837,19.2369508 16.9138182,19.0253737 16.3533333,18.92 C13.3833333,18.37 13.3833333,17.4166667 13.3833333,16.83 L13.3833333,16.4633333 C14.1330214,15.7590457 14.6671035,14.8561925 14.9233333,13.86 C15.84,13.86 16.0233333,11.99 16.0233333,11.6966667 C16.0233333,11.4033333 16.06,10.3033333 15.1433333,10.3033333 C17.1233333,4.95 11.88,2.78666667 7.95666667,5.53666667 C6.34333333,5.53666667 6.19666667,7.92 6.82,10.3033333 C5.90333333,10.3033333 5.94,11.44 5.94,11.6966667 C5.94,11.9533333 6.16,13.86 7.04,13.86 C7.30002588,14.8736093 7.8475664,15.7904213 8.61666667,16.5 L8.61666667,16.8666667 C8.61666667,17.4533333 8.61666667,18.4066667 5.64666667,18.9566667 C5.08803169,19.0480981 4.55252503,19.2473564 4.07,19.5433333"/>
    <circle cx="11" cy="11" r="11"/>
  </g>
</svg>
