<!-- @SOURCE https://ionicons.com -->
<svg xmlns="http://www.w3.org/2000/svg" viewBox="0 0 24 24">
  <g class="icon-fill">
    <path d="M12.1956835,0.0575539568 C5.46302158,-0.033381295 -0.033381295,5.46302158 0.0575539568,12.1956835 C0.147338129,18.6526619 5.40489209,23.9102158 11.8618705,24 C18.5956835,24.0920863 24.0909353,18.5956835 23.9988489,11.8630216 C23.9102158,5.40489209 18.6526619,0.147338129 12.1956835,0.0575539568 Z M19.4716547,18.8920863 C19.4252403,18.942279 19.3589192,18.9692472 19.2906481,18.9656891 C19.222377,18.962131 19.1592187,18.9284147 19.1182734,18.8736691 C18.6034814,18.2001401 17.9730491,17.6234943 17.2564029,17.1706475 C15.7910791,16.2302158 13.9343885,15.7122302 12.028777,15.7122302 C10.1231655,15.7122302 8.26647482,16.2302158 6.80115108,17.1706475 C6.08453085,17.6232933 5.45409679,18.1997459 4.93928058,18.8730935 C4.8983353,18.9278392 4.83517691,18.9615555 4.76690583,18.9651136 C4.69863475,18.9686717 4.63231365,18.9417035 4.58589928,18.8915108 C2.89707902,17.0684126 1.94042875,14.686214 1.89928058,12.2014388 C1.80546763,6.60086331 6.40115108,1.91309353 12.0040288,1.89924921 C17.6069065,1.88546763 22.1582763,6.43510791 22.1582763,12.028777 C22.1602034,14.5734718 21.2005878,17.024932 19.4716547,18.8920863 Z"/>
    <path d="M12.028777,5.58273381 C10.8938129,5.58273381 9.8676259,6.00805755 9.13841727,6.78100719 C8.40920863,7.55395683 8.04489209,8.62273381 8.12719424,9.76978417 C8.29410072,12.028777 10.0443165,13.8705036 12.028777,13.8705036 C14.0132374,13.8705036 15.76,12.028777 15.9303597,9.77035971 C16.0155396,8.6342446 15.6541007,7.5752518 14.9128058,6.78791367 C14.1807194,6.01093525 13.156259,5.58273381 12.028777,5.58273381 Z"/>
  </g>
</svg>
