<svg xmlns="http://www.w3.org/2000/svg" viewBox="0 0 24 24">
  <path class="icon-stroke" stroke="#000000" fill="none" stroke-width="2" stroke-linecap="round" stroke-linejoin="round" d="M17.7466667,17.9666667 C14.1166667,17.27 13.9333333,16.1333333 13.9333333,15.4 L13.9333333,14.96 C14.9203602,14.1030726 15.6449098,12.9844697 16.0233333,11.7333333 L16.06,11.7333333 C17.16,11.7333333 17.4533333,9.42333333 17.4533333,9.05666667 C17.4533333,8.69 17.49,7.33333333 16.3533333,7.33333333 C18.7,0.733333333 12.2833333,-1.90666667 7.44333333,1.46666667 C5.46333333,1.46666667 5.28,4.4 6.01333333,7.33333333 C4.87666667,7.33333333 4.91333333,8.72666667 4.91333333,9.05666667 C4.91333333,9.38666667 5.17,11.7333333 6.30666667,11.7333333 C6.67333333,13.0533333 7.15,14.2633333 8.03,15.0333333 L8.03,15.4733333 C8.03,16.2066667 8.21333333,17.3066667 4.54666667,17.9666667 C0.88,18.6266667 0,22 0,22 L22,22 C21.5096097,19.9298402 19.8399304,18.3465236 17.7466667,17.9666667 Z" transform="translate(1 1)"/>
</svg>
