<svg xmlns="http://www.w3.org/2000/svg" width="24" height="24" viewBox="0 0 24 24">
  <path class="icon-stroke" stroke="#000000" fill="none" stroke-width="2" stroke-linecap="round" stroke-linejoin="round" d="M17.7454417,18.326107 C14.1156923,17.6294885 13.9323716,16.4929002 13.9323716,15.7596175 L13.9323716,15.3196479 C14.9193303,14.4627796 15.6438299,13.344254 16.0222273,12.093204 L16.0588914,12.093204 C17.1588155,12.093204 17.4521286,9.78336341 17.4521286,9.41672205 C17.4521286,9.05008069 17.4887927,7.69350767 16.3522045,7.69350767 C18.6987092,1.09396324 12.2824855,-1.54585453 7.44281955,1.82724596 C5.46295622,1.82724596 5.27963554,4.76037682 6.01291826,7.69350767 C4.87633005,7.69350767 4.91299419,9.08674483 4.91299419,9.41672205 C4.91299419,9.74669927 5.16964314,12.093204 6.30623134,12.093204 C6.6728727,13.4131128 7.14950646,14.6230293 8.02944572,15.3929762 L8.02944572,15.8329458 C8.02944572,16.5662285 8.2127664,17.6661526 4.54635283,18.326107 C0.879939257,18.9860615 0,22.359162 0,22.359162 L21.9984814,22.359162 C21.508125,20.2891451 19.8385609,18.7059377 17.7454417,18.326107 Z" transform="translate(1 1)"/>
</svg>
