<svg xmlns="http://www.w3.org/2000/svg" viewBox="0 0 24 24">
  <path class="icon-fill" d="M23.8,4.2 C23.8,4.2 23.6,2.5 22.8,1.8 C21.9,0.8 20.9,0.8 20.4,0.8 C17,0.6 12,0.6 12,0.6 L12,0.6 C12,0.6 7,0.6 3.6,0.8 C3.1,0.9 2.1,0.9 1.2,1.8 C0.5,2.5 0.2,4.2 0.2,4.2 C0.2,4.2 0,6.1 0,8.1 L0,9.9 C0,11.8 0.2,13.8 0.2,13.8 C0.2,13.8 0.4,15.5 1.2,16.2 C2.1,17.2 3.3,17.1 3.8,17.2 C5.7,17.4 12,17.4 12,17.4 C12,17.4 17,17.4 20.4,17.2 C20.9,17.1 21.9,17.1 22.8,16.2 C23.5,15.5 23.8,13.8 23.8,13.8 C23.8,13.8 24,11.9 24,9.9 L24,8.1 C24,6.1 23.8,4.2 23.8,4.2 L23.8,4.2 Z M9.5,12.1 L9.5,5.4 L16,8.8 C16,8.8 9.5,12.1 9.5,12.1 Z" transform="translate(0 3)"/>
</svg>
