<svg xmlns="http://www.w3.org/2000/svg" width="92" height="50" viewBox="0 0 92 50">
  <g fill="none">
    <path fill="#23C386" d="M55.4228029,44.6995249 C54.0577622,45.073674 52.9387125,46.0514207 52.3847981,47.3539192 C52.3847981,47.3539192 52.1686461,48.5795724 45.6425178,48.652019 L45.4441805,48.652019 C38.9192399,48.5558195 38.7030879,47.3539192 38.7030879,47.3539192 C38.1491735,46.0514207 37.0301238,45.073674 35.6650831,44.6995249 C24.3610451,42.8384798 22.6840855,39.0961995 22.3491686,36.3634204 C22.152019,34.7897862 22.6555819,32.5985748 23.1543943,30.8859857 C24.2767221,27.0190024 25.8372922,21.7220903 24.4441805,18.4904988 C23.6769596,16.7090261 21.5866983,14.1425178 15.9916865,12.0771971 L15.8954869,12.0415677 C14.8812352,11.6852732 11.3218527,10.260095 9.24465558,9.27790974 C7.11734139,8.35070434 5.23003287,6.94964384 3.72684086,5.18171021 C2.71041695,3.99268569 1.87044879,2.66353608 1.2327791,1.23515439 C12.3337292,8.65320665 19.8788599,6.98931116 23.0855107,8.61045131 C24.4859265,9.34099839 25.5784078,10.5489213 26.1650831,12.0154394 C29.4370546,6.98931116 35.260095,3.77553444 44.692399,3.77553444 L46.3788599,3.77553444 C55.8159145,3.77553444 61.6389549,6.98931116 64.9061758,12.0154394 C65.4931702,10.5483582 66.5866191,9.34029732 67.9881235,8.61045131 C71.1947743,6.98931116 78.7458432,8.65320665 89.8408551,1.22921615 C88.7942342,3.55214771 87.2321413,5.60610087 85.2731591,7.23515439 C83.5736342,8.68289786 80.5902613,9.847981 77.4346793,11.0855107 C72.5712589,12.9703088 67.5225653,14.9833729 66.6270784,18.3764846 C65.7185273,21.8527316 66.9608076,26.5023753 67.9572447,30.6413302 C68.4114241,32.3673122 68.6821245,34.1364191 68.7648456,35.9192399 C68.6294537,38.6935867 67.3515439,42.736342 55.4228029,44.6995249 Z"/>
    <path fill="#0E6655" d="M91.0760132,1.22921615 C91.0760132,0.553111942 90.5300121,0.0039194446 89.8539192,0 L89.8004751,0 C89.5668322,0.00763051508 89.3403875,0.0826996269 89.1484561,0.216152019 C81.7292162,5.17458432 75.8907363,5.95011876 72.0285036,6.4631829 C70.1187648,6.71733967 68.611639,6.91686461 67.432304,7.51306413 L67.4192399,7.52019002 C66.3838996,8.06067227 65.4823112,8.82552109 64.780285,9.75890736 C60.8610451,4.97149644 54.6852732,2.54631829 46.371734,2.54631829 L44.6852732,2.54631829 C36.371734,2.54631829 30.195962,4.97149644 26.2767221,9.75890736 C25.5746959,8.82552109 24.6731076,8.06067227 23.6377672,7.52019002 L23.6247031,7.52019002 C22.4465558,6.9263658 20.9394299,6.72327791 19.0296912,6.46912114 C15.1745843,5.95011876 9.33729216,5.17458432 1.91211401,0.212589074 C1.45668168,-0.0918467616 0.854758338,-0.0581619956 0.436136911,0.295187538 C0.0175154843,0.648537071 -0.116756508,1.23625929 0.106888361,1.73634204 C0.30760095,2.18646081 1.08907363,4.22327791 1.3064133,4.79097387 C2.25653207,7.26603325 5.78978622,12.4524941 6.49524941,18.6365796 C6.57007126,19.2304038 6.67577197,19.9239905 6.81947743,20.6211401 L10.3931116,21.152019 L7.56769596,23.2897862 C8.37066755,25.785159 9.81565018,28.0255374 11.7577197,29.7862233 L15.9144893,27.6817102 L14.3705463,31.4429929 C16.2232779,32.2589074 18.7387173,32.5985748 21.5285036,32.2434679 C21.1223278,34 20.9916865,35.4097387 21.1306413,36.5190024 C21.4869359,39.3907363 23.0083135,40.9133017 24.1247031,41.8171021 C26.4548694,43.6947743 30.1425178,45.0308789 35.3978622,45.9026128 C36.3542486,46.1793208 37.1399176,46.8637393 37.5451306,47.7731591 C37.9988124,49.1377672 40.5142518,49.8099762 45.4275534,49.8824228 L45.6579572,49.8824228 C48.5023753,49.8503563 50.5961995,49.5985748 51.8812352,49.1330166 C52.9631829,48.7410926 53.3871734,48.216152 53.543943,47.7850356 C53.9467161,46.8699879 54.734424,46.1805803 55.6947743,45.9026128 C61.2220903,44.9869359 65.0285036,43.5593824 67.3337292,41.5391924 C69.5771971,39.5712589 69.9287411,37.4228029 69.9976247,35.9786223 C69.9976247,35.9406176 69.9976247,35.9010293 69.9976247,35.8598575 C69.9410976,34.6418713 69.8010216,33.4292025 69.5783848,32.2304038 C70.5227605,32.3583547 71.4764277,32.4044486 72.4287411,32.368171 L71.935867,28.6864608 L74.4524941,31.9477435 L74.7185273,29.7992874 L76.3147268,31.5178147 C78.4221789,30.6138342 80.2116316,29.1010498 81.4536817,27.1733967 L77.3064133,23.6460808 L82.7042755,24.8931116 C83.4828526,23.3440995 84.0153656,21.683252 84.2826603,19.9703088 L81.8776722,18.7767221 C81.8776722,18.7767221 84.5795724,18.3824228 84.5795724,18.3705463 L81.0819477,16.675772 L84.7933492,16.7114014 C85.9180523,11.3396675 88.871734,6.97268409 89.7375297,4.77553444 C89.9489311,4.23634204 90.7410926,2.23159145 90.9501188,1.77078385 C91.03338,1.60241917 91.0760132,1.41704289 91.0760132,1.22921615 Z M55.4228029,44.6971496 C54.0577622,45.0712987 52.9387125,46.0490454 52.3847981,47.3515439 C52.3847981,47.3515439 52.1686461,48.5771971 45.6425178,48.6496437 L45.4441805,48.6496437 C38.9192399,48.5534442 38.7030879,47.3515439 38.7030879,47.3515439 C38.1491735,46.0490454 37.0301238,45.0712987 35.6650831,44.6971496 C24.3610451,42.8384798 22.6840855,39.0961995 22.3491686,36.3634204 C22.152019,34.7897862 22.6555819,32.5985748 23.1543943,30.8859857 C24.2767221,27.0190024 25.8372922,21.7220903 24.4441805,18.4904988 C23.6769596,16.7090261 21.5866983,14.1425178 15.9916865,12.0771971 L15.8954869,12.0415677 C14.8812352,11.6852732 11.3218527,10.260095 9.24465558,9.27790974 C7.11734139,8.35070434 5.23003287,6.94964384 3.72684086,5.18171021 C2.71041695,3.99268569 1.87044879,2.66353608 1.2327791,1.23515439 C12.3337292,8.65320665 19.8788599,6.98931116 23.0855107,8.61045131 C24.4859265,9.34099839 25.5784078,10.5489213 26.1650831,12.0154394 C29.4370546,6.98931116 35.260095,3.77553444 44.692399,3.77553444 L46.3788599,3.77553444 C55.8159145,3.77553444 61.6389549,6.98931116 64.9061758,12.0154394 C65.4931702,10.5483582 66.5866191,9.34029732 67.9881235,8.61045131 C71.1947743,6.98931116 78.7458432,8.65320665 89.8408551,1.22921615 C88.7942342,3.55214771 87.2321413,5.60610087 85.2731591,7.23515439 C83.5736342,8.68289786 80.5902613,9.847981 77.4346793,11.0855107 C72.5712589,12.9703088 67.5225653,14.9833729 66.6270784,18.3764846 C65.7185273,21.8527316 66.9608076,26.5023753 67.9572447,30.6413302 C68.4114241,32.3673122 68.6821245,34.1364191 68.7648456,35.9192399 C68.6294537,38.6935867 67.3515439,42.736342 55.4228029,44.6995249 L55.4228029,44.6971496 Z"/>
    <path fill="#0E6655" d="M9.71971496.427553444C10.3824228-.0273159145 13.4204276.356294537 13.4204276.356294537 14.1330166.458432304 14.6163895.990498812 14.2339667 1.3432304 13.3012402 1.96850887 12.1526175 2.1832047 11.0570071 1.93705463 9.56294537 1.64251781 9.04988124.882422803 9.71971496.427553444zM9.48574822 3.29453682C11.195962 3.37767221 10.263658 5.08907363 9.23990499 5.29216152 8.21615202 5.49524941 6.63895487 4.9631829 6.847981 4.32304038 7.05700713 3.68289786 8.60095012 3.24584323 9.48574822 3.29453682zM4.16270784.118764846C5.40142518-.0249406176 6.93824228 1.31591449 7.0391924 1.87885986 7.17102138 2.5783848 6.29809976 2.87767221 4.16270784 3.18527316 2.02731591 3.49287411.0831353919 2.47268409.0831353919 1.87885986.0831353919 1.28503563 2.91805226.237529691 4.16270784.118764846z" transform="translate(38.005 6.057)"/>
    <path fill="#0E6655" d="M.0831353919 3.3847981C.517814727 3.29216152 4.0023753 2.47149644 4.82304038.0380047506 4.84085511.0380047506 6.01781473 3.82897862.0831353919 3.3847981zM14.5605701.0380047506C15.4572447 2.63420428 19.3444181 3.39429929 19.3444181 3.39429929 13.0059382 3.69952494 14.5605701.0380047506 14.5605701.0380047506z" transform="translate(35.867 27.078)"/>
    <path fill="#0E6655" d="M2.08432304.0973871734C4.73990499.0142517815 8.06532067 3.00593824 13.1199525 4.9976247 14.9619952 5.72209026 16.9536817 6.304038 17.239905 6.38598575 17.5261283 6.46793349 15.4465558 6.60807601 14.2494062 6.74228029 13.1449661 8.6507604 11.0697196 9.78546054 8.86698337 9.68527316 5.33254157 9.68527316 3.63420428 7.48931116 3.21496437 5.21021378 3.0896347 4.58176006 3.05762003 3.9382652 3.11995249 3.30047506 3.11995249 3.30047506 4.66389549 3.08551069 7.98218527 3.83966746 5.9239905 2.81591449 4.20190024 2.04394299 2.67695962 1.99049881 1.76823674 1.96704759.862374999 2.10208288 0 2.38954869 0 2.38954869.475059382.133016627 2.08432304.0973871734zM36.8099762 1.98218527L36.8099762 1.99406176C35.2909739 2.05463183 33.5498812 2.82541568 31.5106888 3.8432304 34.8182898 3.08907363 36.3741093 3.304038 36.3741093 3.304038 36.4305272 3.94224488 36.3961388 4.58522801 36.2719715 5.21377672 35.8586698 7.49287411 34.1543943 9.6888361 30.6199525 9.6888361 28.4174905 9.78648702 26.3431236 8.65251813 25.236342 6.74584323 24.04038 6.60807601 21.9536817 6.47030879 22.2458432 6.38954869 22.5380048 6.3087886 24.5190024 5.72565321 26.3669834 5.00118765 31.4394299 3.00950119 34.7410926.013064133 37.4026128.100950119 39.0047506.149643705 39.45962 2.39311164 39.45962 2.39311164 38.6069627 2.10333654 37.7103503 1.96428325 36.8099762 1.98218527L36.8099762 1.98218527z" transform="translate(26.01 19.24)"/>
    <path fill="#B22449" d="M28.4109264.653206651C31.7102138-.100950119 33.2612827.118764846 33.2612827.118764846 33.3181718.756914174 33.2841827 1.39990824 33.1603325 2.02850356 32.7482185 4.30997625 31.0475059 6.50593824 27.5213777 6.50593824 25.3228635 6.602792 23.2530886 5.46833011 22.152019 3.56294537 24.3325416 2.83254157 26.5391924 1.72565321 28.4109264.653206651zM11.1698337 3.56294537C10.0694666 5.46918676 7.99936667 6.60428466 5.80047506 6.50712589 2.27434679 6.50712589.574821853 4.3111639.16152019 2.02969121.0376700796 1.40109588.00368096563.758101822.0605700713.119952494.0605700713.119952494 1.61163895-.0950118765 4.91092637.659144893 6.78266033 1.72565321 8.99049881 2.83254157 11.1698337 3.56294537z" transform="translate(29.097 22.447)"/>
    <g transform="translate(31.354 24.11)">
      <path fill="#E6325A" d="M1.50831354.273159145C1.50831354.273159145 6.99287411 1.62945368 6.79572447 2.62707838 6.59857482 3.62470309 4.86223278 4.4631829 3.20665083 4.10332542 1.55106888 3.74346793.522565321 1.86935867.20783848 1.3111639-.106888361.752969121-.226840855-.364608076 1.51425178.273159145L1.50831354.273159145zM27.4857482.273159145C27.4857482.273159145 22.0011876 1.62945368 22.1983373 2.62707838 22.3954869 3.62470309 24.131829 4.4631829 25.7885986 4.10332542 27.4453682 3.74346793 28.4714964 1.86935867 28.7874109 1.3111639 29.1033254.752969121 29.2209026-.364608076 27.4809976.273159145L27.4857482.273159145z"/>
      <path fill="#FFF" d="M4.74346793 1.35035629C4.74346793 1.35035629 6.51900238 1.78978622 6.55819477 2.58788599 6.59738717 3.38598575 3.95368171 1.66983373 3.28384798 1.39073634 2.61401425 1.11163895 3.24346793.831353919 4.74346793 1.35035629L4.74346793 1.35035629zM24.216152 1.35035629C24.216152 1.35035629 22.4406176 1.78978622 22.4014252 2.58788599 22.3622328 3.38598575 25.0059382 1.66983373 25.6769596 1.39073634 26.347981 1.11163895 25.716152.831353919 24.216152 1.35035629L24.216152 1.35035629z"/>
    </g>
    <path fill="#222" d="M63.5486936,30.6971496 C63.3752969,32.8099762 61.9275534,34.0059382 57.9916865,34.0059382 C57.5166271,34.0059382 57.0166271,33.9881235 56.4786223,33.9524941 C52.2315914,33.6769596 50.3836105,33.0783848 45.7790974,33.0783848 C41.1745843,33.0783848 39.3254157,33.6888361 35.0902613,33.9524941 C34.5871215,33.9956644 34.0821289,34.0135017 33.5771971,34.0059382 C29.6425178,34.0059382 28.1947743,32.827791 28.0154394,30.6971496 C24.7969121,33.3361045 28.935867,37.1294537 32.111639,38.7209026 C35.2874109,40.3123515 39.3562945,41.131829 45.1567696,41.3004751 L46.4251781,41.3004751 C52.219715,41.1140143 56.2933492,40.3123515 59.4750594,38.7209026 L59.4750594,38.7090261 C62.5890736,37.1543943 66.7779097,33.347981 63.5486936,30.6971496 Z"/>
    <path fill="#FFF" d="M2.27909739 3.77434679C1.30997625 2.9584323-.175771971 1.50475059.0712589074.0771971496.0784409198.038469218.10877374.00818840227.147513939.00107285558.186254138-.00604269111.225367685.0114826693.24584323.0451306413.929928741 1.19002375 2.21733967 1.7719715 3.49168646 2.02019002 3.52365814 2.02597941 3.55045444 2.0477051 3.56272872 2.07778911 3.57500299 2.10787311 3.571053 2.14214329 3.55225653 2.16864608L2.41805226 3.75771971C2.40229482 3.77900703 2.37845818 3.79285625 2.35216094 3.79600293 2.3258637 3.79914961 2.29943245 3.79131535 2.27909739 3.77434679zM4.65558195 5.37885986C4.10506085 5.08753331 3.57529899 4.75856508 3.07007126 4.39429929 3.00682186 4.34868384 2.99247197 4.26045858 3.03800475 4.19714964L4.26128266 2.47149644C4.28372853 2.44020753 4.32284026 2.42556073 4.36031709 2.43440943 4.39779393 2.44325813 4.42622378 2.47385224 4.43230404 2.51187648L4.86223278 5.22565321C4.8871734 5.3847981 4.79334917 5.45130641 4.65558195 5.37885986zM5.66152019 5.4263658L5.20665083 2.54513064C5.19350367 2.46153345 5.21834212 2.37642985 5.2743924 2.31302872 5.33044268 2.24962758 5.41185863 2.21454178 5.49643705 2.21733967 5.67339667 2.21733967 5.85273159 2.22327791 6.01900238 2.22327791 6.48693587 2.22327791 7.01662708 2.22327791 7.59263658 2.16745843L7.71733967 2.15914489C7.82805364 2.15176443 7.9329175 2.20957311 7.98578219 2.30713018 8.03864688 2.40468724 8.02981874 2.52410389 7.9631829 2.6128266L5.83135392 5.46912114C5.80836724 5.49966546 5.7693136 5.51345887 5.73224276 5.50412635 5.69517192 5.49479383 5.66730449 5.46415316 5.66152019 5.4263658L5.66152019 5.4263658zM10.5700713 7.31828979C9.27774957 7.0836817 8.00671215 6.74407639 6.7695962 6.30285036 6.65650479 6.26199713 6.56941805 6.17003447 6.53478028 6.05488727 6.5001425 5.93974008 6.52204027 5.81499346 6.59382423 5.71852732 7.2327791 4.86104513 8.69952494 2.89192399 9.09619952 2.34916865 9.11711551 2.32011847 9.15258383 2.30528974 9.18795243 2.31080824 9.22332102 2.31632675 9.25258601 2.34125571 9.26365796 2.37529691L11 6.8111639C11.0497337 6.94043538 11.0249589 7.08654336 10.9353908 7.19219419 10.8458226 7.29784503 10.705739 7.34619702 10.5700713 7.31828979L10.5700713 7.31828979zM11.9239905 7.19002375L10.0950119 2.43349169C10.0526437 2.3237388 10.0636665 2.20053123 10.1248439 2.10004204 10.1860214 1.99955286 10.2904106 1.93318642 10.4073634 1.92042755 10.9334917 1.86104513 11.4334917 1.80166271 11.9263658 1.73871734 12.8206651 1.62945368 13.6900238 1.52256532 14.6579572 1.44061758 14.7614232 1.43257955 14.8610819 1.48141053 14.9181335 1.56809927 14.9751851 1.65478802 14.980613 1.76563414 14.932304 1.85748219L12.1009501 7.20190024C12.0844121 7.23756559 12.0476169 7.25936228 12.0083919 7.25672973 11.969167 7.25409719 11.9356144 7.22757917 11.9239905 7.19002375L11.9239905 7.19002375zM16.9382423 7.97624703C15.6460808 7.9263658 14.4441805 7.83966746 13.3099762 7.71733967 13.1852121 7.70370135 13.0752263 7.62934554 13.0160777 7.51864983 12.9569292 7.40795412 12.9562458 7.27519421 13.0142518 7.16389549L15.4394299 2.51543943C15.4568669 2.48145217 15.4929627 2.46121245 15.5310554 2.46406293 15.5691481 2.4669134 15.6018297 2.49229973 15.6140143 2.52850356L17.3087886 7.47387173C17.3495145 7.59174669 17.3296214 7.72211441 17.2555937 7.82247882 17.1815661 7.92284322 17.0628869 7.98034754 16.9382423 7.97624703zM18.3147268 7.53800475C18.3013803 7.57609759 18.2654227 7.60160001 18.2250594 7.60160001 18.1846961 7.60160001 18.1487384 7.57609759 18.1353919 7.53800475L16.1793349 1.82897862C16.1406854 1.71566169 16.1576933 1.59075713 16.2252341 1.49189987 16.2927748 1.39304261 16.402951 1.33179196 16.5225653 1.32660333 17.0498812 1.30760095 17.6128266 1.29572447 18.2256532 1.29572447 18.8384798 1.29572447 19.4014252 1.3064133 19.9275534 1.32660333 20.0473802 1.33143101 20.1578987 1.39253293 20.2257101 1.49144392 20.2935214 1.59035492 20.3106692 1.71546983 20.2719715 1.82897862L18.3147268 7.53800475zM23.111639 7.71971496C21.9821853 7.83847981 20.7755344 7.92874109 19.4833729 7.97862233 19.3583081 7.98335774 19.2389292 7.9262157 19.1641787 7.82583647 19.0894283 7.72545724 19.06889 7.59471049 19.1092637 7.47624703L20.804038 2.53087886C20.8162226 2.49467502 20.8489041 2.4692887 20.8869969 2.46643822 20.9250896 2.46358775 20.9611854 2.48382747 20.9786223 2.51781473L23.4073634 7.16627078C23.4653694 7.2775695 23.464686 7.41032942 23.4055375 7.52102513 23.3463889 7.63172084 23.2364031 7.70607665 23.111639 7.71971496L23.111639 7.71971496zM24.3254157 7.20071259L21.4940618 1.85629454C21.4456036 1.7642506 21.4511343 1.65311806 21.5084917 1.56634018 21.5658492 1.4795623 21.6659243 1.43092065 21.7695962 1.43942993 22.7327791 1.52137767 23.6033254 1.62826603 24.5011876 1.73752969 25.0320665 1.80285036 25.5700713 1.86935867 26.1425178 1.93230404 26.230881 1.94082877 26.310167 1.99020316 26.356797 2.06574365 26.4034269 2.14128414 26.4120299 2.23429004 26.3800475 2.31710214L24.5059382 7.18646081C24.4965382 7.22675802 24.4621388 7.25633761 24.4208881 7.25959425 24.3796374 7.26285088 24.3410226 7.23903557 24.3254157 7.20071259L24.3254157 7.20071259zM29.6555819 6.30285036C28.4165364 6.74438757 27.1435007 7.08399618 25.8491686 7.31828979 25.7136161 7.34352517 25.575056 7.29312485 25.4873951 7.18669708 25.3997341 7.08026931 25.3768146 6.93461971 25.4275534 6.8064133L27.1638955 2.37529691C27.1765653 2.34306246 27.205772 2.32027609 27.2401202 2.31582811 27.2744685 2.31138014 27.3085159 2.32597533 27.3289786 2.35391924 27.7268409 2.89667458 29.192399 4.86579572 29.8313539 5.72327791 29.9011704 5.81953546 29.9219094 5.94292215 29.8873984 6.05671517 29.8528874 6.17050819 29.7671049 6.26158921 29.6555819 6.30285036L29.6555819 6.30285036zM31.2149644 2.54513064L30.760095 5.4263658C30.75492 5.46425907 30.7272629 5.49521866 30.6901907 5.50461725 30.6531185 5.51401583 30.6140521 5.49997207 30.5914489 5.46912114L28.4536817 2.6128266C28.3870459 2.52410389 28.3782177 2.40468724 28.4310824 2.30713018 28.4839471 2.20957311 28.588811 2.15176443 28.6995249 2.15914489L28.824228 2.16745843C29.4014252 2.22327791 29.9311164 2.22327791 30.3978622 2.22327791 30.5688836 2.22327791 30.7434679 2.22327791 30.9216152 2.21733967 31.0069374 2.21299509 31.0896469 2.24747353 31.1466198 2.3111355 31.2035926 2.37479747 31.2287154 2.46081184 31.2149644 2.54513064zM33.3515439 4.39429929C32.8464224 4.75978739 32.316658 5.08994768 31.7660333 5.3824228 31.628266 5.45486936 31.5356295 5.3824228 31.5593824 5.23396675L31.9893112 2.51187648C31.9953914 2.47385224 32.0238213 2.44325813 32.0612981 2.43440943 32.0987749 2.42556073 32.1378867 2.44020753 32.1603325 2.47149644L33.3847981 4.19714964C33.4065438 4.22769916 33.4152574 4.26563839 33.4090204 4.30261472 33.4027834 4.33959106 33.3821073 4.37257299 33.3515439 4.39429929zM34.7410926 3.26009501C34.5629454 3.43467933 34.371734 3.60570071 34.172209 3.77553444 34.1518614 3.79272379 34.1252327 3.80058249 34.0988126 3.79719529 34.0723924 3.79380809 34.0486074 3.7794861 34.0332542 3.75771971L32.8978622 2.16270784C32.8790839 2.13637214 32.8749934 2.10229232 32.887006 2.07226082 32.8990186 2.04222931 32.925484 2.02037191 32.9572447 2.01425178 33.7980998 1.85273159 34.4881235 1.59619952 35.04038 1.23990499 35.5176259.938831371 35.9171863.529505736 36.2066508.0451306413 36.227466.0114214564 36.267013-.00583362715 36.3058818.00183436237 36.3447505.0095023519 36.3747815.040483701 36.3812352.0795724466 36.4064471.241103219 36.4096432.405306429 36.3907363.567695962 36.2980998 1.37054632 35.7280285 2.30166271 34.7410926 3.26009501z" transform="translate(27.553 32.542)"/>
  </g>
</svg>
